<?xml version="1.0" encoding="utf-8"?>
<!-- Generator: Adobe Illustrator 18.1.1, SVG Export Plug-In . SVG Version: 6.00 Build 0)  -->
<svg version="1.1" id="Layer_1" xmlns="http://www.w3.org/2000/svg" xmlns:xlink="http://www.w3.org/1999/xlink" x="0px" y="0px"
	 viewBox="0 0 198 198" enable-background="new 0 0 198 198" xml:space="preserve">
<circle fill="#333333" cx="99" cy="99" r="99"/>
<circle fill="#333333" stroke="#FFFFFF" stroke-miterlimit="10" cx="99" cy="99" r="94.1"/>
<g>
	<g>
		<path fill="#FFFFFF" d="M119.9,52.5h-17.6c-0.6,0-1,0.5-1,1v4.7c0,0,0,0.1,0,0.1l0.8,7.9h-6.3l0.8-7.9c0,0,0-0.1,0-0.1v-4.7
			c0-0.6-0.5-1-1-1H78.1c-0.6,0-1,0.5-1,1v4.7c0,0,0,0.1,0,0.1l1.1,10.2c0.1,1,0.7,1.9,1.5,2.3l1.6,15l-0.9,4
			c-0.1,0.3,0,0.6,0.2,0.9c0.2,0.2,0.5,0.4,0.8,0.4h11.1c0,0,0,0,0,0c0.6,0,1-0.5,1-1c0-0.1,0-0.3-0.1-0.4l-0.8-3.9l0.3-2.4h12.4
			l0.3,2.4l-0.9,4c-0.1,0.3,0,0.6,0.2,0.9c0.2,0.2,0.5,0.4,0.8,0.4h11.1c0,0,0,0,0,0c0.6,0,1-0.5,1-1c0-0.1,0-0.3-0.1-0.4l-0.8-3.9
			l1.6-15c0.8-0.5,1.4-1.3,1.5-2.3l1.1-10.2c0,0,0-0.1,0-0.1v-4.7C120.9,52.9,120.5,52.5,119.9,52.5z M118.9,54.5v2.6h-15.5v-2.6
			H118.9z M117.8,68.3c-0.1,0.5-0.5,1-1.1,1h-11.3c-0.5,0-1-0.4-1.1-0.9l-0.9-9.1h15.3L117.8,68.3z M114.8,84.9h-7.4L106,71.2h10.3
			L114.8,84.9z M80.2,68.3l-0.9-9.1h15.3l-0.9,9.1c-0.1,0.5-0.5,0.9-1.1,0.9H81.2C80.7,69.2,80.2,68.8,80.2,68.3z M81.7,71.2H92
			l-1.4,13.7h-7.4L81.7,71.2z M94.7,54.5v2.6H79.1v-2.6H94.7z M82.6,89.1l0.5-2.2h7.6l0.5,2.2H82.6z M93,81.3l1.1-10.5
			c0.8-0.5,1.4-1.3,1.5-2.3l0-0.3h6.7l0,0.3c0.1,1,0.7,1.9,1.5,2.3l1.1,10.5H93z M106.8,89.1l0.5-2.2h7.6l0.5,2.2H106.8z"/>
		<path fill="#FFFFFF" d="M99,71.4c-2.2,0-4,1.8-4,4s1.8,4,4,4s4-1.8,4-4C103,73.2,101.2,71.4,99,71.4z M99,77.4c-1.1,0-2-0.9-2-2
			c0-1.1,0.9-2,2-2c1.1,0,2,0.9,2,2C101,76.5,100.1,77.4,99,77.4z"/>
	</g>
	<text transform="matrix(1 0 0 1 16.8368 118.8629)"><tspan x="0" y="0" fill="#FFFFFF" font-family="'MuseoSlab-900'" font-size="24">FIELD GUIDE</tspan><tspan x="4.4" y="23.5" fill="#FFFFFF" font-family="'MuseoSans-900'" font-size="15">TO THE CHESAPEAKE</tspan></text>
</g>
</svg>
